<mxfile host="65bd71144e">
    <diagram id="WUCEXYOKLo1XGhizYtRr" name="Page-1">
        <mxGraphModel dx="1466" dy="312" grid="1" gridSize="10" guides="1" tooltips="1" connect="1" arrows="1" fold="1" page="1" pageScale="1" pageWidth="827" pageHeight="1169" math="0" shadow="0">
            <root>
                <mxCell id="0"/>
                <mxCell id="1" parent="0"/>
                <mxCell id="5" value="" style="edgeStyle=none;html=1;entryX=0.25;entryY=0;entryDx=0;entryDy=0;exitX=0.25;exitY=1;exitDx=0;exitDy=0;" parent="1" source="3" target="4" edge="1">
                    <mxGeometry relative="1" as="geometry"/>
                </mxCell>
                <mxCell id="3" value="Exception Middleware" style="rounded=1;whiteSpace=wrap;html=1;" parent="1" vertex="1">
                    <mxGeometry x="280" y="90" width="120" height="60" as="geometry"/>
                </mxCell>
                <mxCell id="6" value="" style="edgeStyle=none;html=1;entryX=0.675;entryY=1.042;entryDx=0;entryDy=0;entryPerimeter=0;exitX=0.675;exitY=-0.025;exitDx=0;exitDy=0;exitPerimeter=0;" parent="1" source="4" target="3" edge="1">
                    <mxGeometry relative="1" as="geometry">
                        <Array as="points"/>
                    </mxGeometry>
                </mxCell>
                <mxCell id="17" value="" style="edgeStyle=none;html=1;" parent="1" source="4" target="16" edge="1">
                    <mxGeometry relative="1" as="geometry"/>
                </mxCell>
                <mxCell id="4" value="Routing Midleware" style="whiteSpace=wrap;html=1;rounded=1;" parent="1" vertex="1">
                    <mxGeometry x="280" y="170" width="120" height="60" as="geometry"/>
                </mxCell>
                <mxCell id="7" value="" style="endArrow=classic;html=1;" parent="1" edge="1">
                    <mxGeometry width="50" height="50" relative="1" as="geometry">
                        <mxPoint x="40" y="44.5" as="sourcePoint"/>
                        <mxPoint x="100" y="44.5" as="targetPoint"/>
                    </mxGeometry>
                </mxCell>
                <mxCell id="8" value="Filter" style="rounded=1;whiteSpace=wrap;html=1;" parent="1" vertex="1">
                    <mxGeometry x="100" y="20" width="70" height="50" as="geometry"/>
                </mxCell>
                <mxCell id="9" value="Triger&lt;br&gt;Pipeline" style="ellipse;whiteSpace=wrap;html=1;" parent="1" vertex="1">
                    <mxGeometry x="210" y="20" width="90" height="50" as="geometry"/>
                </mxCell>
                <mxCell id="10" value="" style="endArrow=classic;html=1;exitX=1;exitY=0.5;exitDx=0;exitDy=0;entryX=0.5;entryY=0;entryDx=0;entryDy=0;" parent="1" source="9" target="3" edge="1">
                    <mxGeometry width="50" height="50" relative="1" as="geometry">
                        <mxPoint x="300" y="70" as="sourcePoint"/>
                        <mxPoint x="350" y="80" as="targetPoint"/>
                        <Array as="points">
                            <mxPoint x="340" y="45"/>
                        </Array>
                    </mxGeometry>
                </mxCell>
                <mxCell id="11" value="" style="endArrow=classic;html=1;entryX=0;entryY=0.5;entryDx=0;entryDy=0;exitX=1;exitY=0.5;exitDx=0;exitDy=0;" parent="1" source="8" target="9" edge="1">
                    <mxGeometry width="50" height="50" relative="1" as="geometry">
                        <mxPoint x="190" y="80" as="sourcePoint"/>
                        <mxPoint x="240" y="30" as="targetPoint"/>
                    </mxGeometry>
                </mxCell>
                <mxCell id="12" value="Request" style="text;html=1;align=center;verticalAlign=middle;resizable=0;points=[];autosize=1;strokeColor=none;fillColor=none;" parent="1" vertex="1">
                    <mxGeometry x="20" y="30" width="60" height="20" as="geometry"/>
                </mxCell>
                <mxCell id="13" value="" style="edgeStyle=none;html=1;entryX=0.25;entryY=0;entryDx=0;entryDy=0;exitX=0.25;exitY=1;exitDx=0;exitDy=0;" parent="1" source="4" target="15" edge="1">
                    <mxGeometry relative="1" as="geometry">
                        <mxPoint x="310" y="250" as="sourcePoint"/>
                    </mxGeometry>
                </mxCell>
                <mxCell id="14" value="" style="edgeStyle=none;html=1;entryX=0.693;entryY=1.008;entryDx=0;entryDy=0;entryPerimeter=0;exitX=0.685;exitY=-0.025;exitDx=0;exitDy=0;exitPerimeter=0;" parent="1" source="15" target="4" edge="1">
                    <mxGeometry relative="1" as="geometry">
                        <mxPoint x="361" y="252.51999999999998" as="targetPoint"/>
                        <Array as="points"/>
                    </mxGeometry>
                </mxCell>
                <mxCell id="19" value="" style="edgeStyle=none;html=1;" parent="1" source="15" target="18" edge="1">
                    <mxGeometry relative="1" as="geometry"/>
                </mxCell>
                <mxCell id="15" value="EndPoint Midleware" style="whiteSpace=wrap;html=1;rounded=1;" parent="1" vertex="1">
                    <mxGeometry x="280" y="260" width="120" height="60" as="geometry"/>
                </mxCell>
                <mxCell id="16" value="Parsing request&amp;nbsp;&lt;br&gt;Select the endpoint&amp;nbsp;" style="ellipse;whiteSpace=wrap;html=1;rounded=1;" parent="1" vertex="1">
                    <mxGeometry x="460" y="170" width="120" height="60" as="geometry"/>
                </mxCell>
                <mxCell id="21" value="" style="edgeStyle=none;html=1;" parent="1" source="18" target="20" edge="1">
                    <mxGeometry relative="1" as="geometry"/>
                </mxCell>
                <mxCell id="18" value="MVC Framework&lt;br&gt;trigger" style="ellipse;whiteSpace=wrap;html=1;rounded=1;" parent="1" vertex="1">
                    <mxGeometry x="470" y="260" width="120" height="60" as="geometry"/>
                </mxCell>
                <mxCell id="23" value="" style="edgeStyle=none;html=1;" parent="1" source="20" target="22" edge="1">
                    <mxGeometry relative="1" as="geometry"/>
                </mxCell>
                <mxCell id="20" value="Controller Instanciation" style="whiteSpace=wrap;html=1;rounded=1;" parent="1" vertex="1">
                    <mxGeometry x="470" y="350" width="120" height="60" as="geometry"/>
                </mxCell>
                <mxCell id="27" value="" style="edgeStyle=none;html=1;" parent="1" source="22" target="26" edge="1">
                    <mxGeometry relative="1" as="geometry"/>
                </mxCell>
                <mxCell id="22" value="Model binding" style="whiteSpace=wrap;html=1;rounded=1;" parent="1" vertex="1">
                    <mxGeometry x="470" y="430" width="120" height="60" as="geometry"/>
                </mxCell>
                <mxCell id="29" value="" style="edgeStyle=none;html=1;" parent="1" source="26" target="28" edge="1">
                    <mxGeometry relative="1" as="geometry"/>
                </mxCell>
                <mxCell id="26" value="Action filter&amp;nbsp;&lt;br&gt;(BeforeExceucute())" style="whiteSpace=wrap;html=1;rounded=1;" parent="1" vertex="1">
                    <mxGeometry x="650" y="490" width="120" height="60" as="geometry"/>
                </mxCell>
                <mxCell id="31" value="" style="edgeStyle=none;html=1;" parent="1" source="28" target="30" edge="1">
                    <mxGeometry relative="1" as="geometry"/>
                </mxCell>
                <mxCell id="28" value="Action Execution" style="whiteSpace=wrap;html=1;rounded=1;" parent="1" vertex="1">
                    <mxGeometry x="480" y="555" width="120" height="60" as="geometry"/>
                </mxCell>
                <mxCell id="35" value="" style="edgeStyle=none;html=1;" parent="1" source="30" target="34" edge="1">
                    <mxGeometry relative="1" as="geometry"/>
                </mxCell>
                <mxCell id="55" value="" style="edgeStyle=none;html=1;fontSize=12;" parent="1" source="30" target="54" edge="1">
                    <mxGeometry relative="1" as="geometry"/>
                </mxCell>
                <mxCell id="30" value="Action filter&lt;br&gt;(AfterExcecute())" style="whiteSpace=wrap;html=1;rounded=1;" parent="1" vertex="1">
                    <mxGeometry x="660" y="610" width="120" height="60" as="geometry"/>
                </mxCell>
                <mxCell id="38" value="" style="edgeStyle=none;html=1;fontSize=24;" parent="1" source="34" target="37" edge="1">
                    <mxGeometry relative="1" as="geometry"/>
                </mxCell>
                <mxCell id="34" value="Result Fitler" style="whiteSpace=wrap;html=1;rounded=1;" parent="1" vertex="1">
                    <mxGeometry x="480" y="700" width="120" height="60" as="geometry"/>
                </mxCell>
                <mxCell id="36" value="&lt;font style=&quot;font-size: 24px&quot;&gt;Architecture diagram flow&lt;/font&gt;" style="text;html=1;align=center;verticalAlign=middle;resizable=0;points=[];autosize=1;strokeColor=none;fillColor=none;" parent="1" vertex="1">
                    <mxGeometry x="315" y="10" width="290" height="20" as="geometry"/>
                </mxCell>
                <mxCell id="41" value="" style="edgeStyle=none;html=1;fontSize=24;" parent="1" source="37" target="40" edge="1">
                    <mxGeometry relative="1" as="geometry"/>
                </mxCell>
                <mxCell id="37" value="Result Execution" style="whiteSpace=wrap;html=1;rounded=1;" parent="1" vertex="1">
                    <mxGeometry x="480" y="790" width="120" height="60" as="geometry"/>
                </mxCell>
                <mxCell id="43" value="" style="edgeStyle=none;html=1;fontSize=24;" parent="1" source="40" target="42" edge="1">
                    <mxGeometry relative="1" as="geometry"/>
                </mxCell>
                <mxCell id="49" value="" style="edgeStyle=none;html=1;fontSize=12;" parent="1" source="40" target="37" edge="1">
                    <mxGeometry relative="1" as="geometry"/>
                </mxCell>
                <mxCell id="51" value="" style="edgeStyle=none;html=1;fontSize=12;" parent="1" source="40" target="50" edge="1">
                    <mxGeometry relative="1" as="geometry"/>
                </mxCell>
                <mxCell id="40" value="Content negociation&lt;br&gt;Using &lt;br&gt;Output Formatter" style="whiteSpace=wrap;html=1;rounded=1;" parent="1" vertex="1">
                    <mxGeometry x="640" y="850" width="120" height="60" as="geometry"/>
                </mxCell>
                <mxCell id="45" value="" style="edgeStyle=none;html=1;fontSize=24;" parent="1" source="42" target="44" edge="1">
                    <mxGeometry relative="1" as="geometry"/>
                </mxCell>
                <mxCell id="42" value="JSon Outputformatter" style="whiteSpace=wrap;html=1;rounded=1;" parent="1" vertex="1">
                    <mxGeometry x="780" y="910" width="120" height="50" as="geometry"/>
                </mxCell>
                <mxCell id="47" value="" style="edgeStyle=none;html=1;fontSize=24;" parent="1" source="44" target="46" edge="1">
                    <mxGeometry relative="1" as="geometry"/>
                </mxCell>
                <mxCell id="44" value="Xml Formatters" style="whiteSpace=wrap;html=1;rounded=1;" parent="1" vertex="1">
                    <mxGeometry x="827" y="950" width="120" height="60" as="geometry"/>
                </mxCell>
                <mxCell id="46" value="Custom Formatters" style="whiteSpace=wrap;html=1;rounded=1;" parent="1" vertex="1">
                    <mxGeometry x="870" y="990" width="120" height="60" as="geometry"/>
                </mxCell>
                <mxCell id="48" value="&lt;span style=&quot;font-size: 12px&quot;&gt;&amp;nbsp; &amp;nbsp; &amp;nbsp; &amp;nbsp; &amp;nbsp; &amp;nbsp; &amp;nbsp; &amp;nbsp; &amp;nbsp;OutputFormatters&lt;/span&gt;" style="text;html=1;align=center;verticalAlign=middle;resizable=0;points=[];autosize=1;strokeColor=none;fillColor=none;fontSize=24;" parent="1" vertex="1">
                    <mxGeometry x="715" y="870" width="170" height="40" as="geometry"/>
                </mxCell>
                <mxCell id="50" value="Writing Result&amp;nbsp;&lt;br&gt;using Selected&lt;br&gt;Output&lt;br&gt;Formatter" style="ellipse;whiteSpace=wrap;html=1;rounded=1;" parent="1" vertex="1">
                    <mxGeometry x="480" y="920" width="120" height="80" as="geometry"/>
                </mxCell>
                <mxCell id="52" value="" style="endArrow=classic;html=1;fontSize=12;exitX=0;exitY=0.5;exitDx=0;exitDy=0;" parent="1" source="50" edge="1">
                    <mxGeometry width="50" height="50" relative="1" as="geometry">
                        <mxPoint x="440" y="820" as="sourcePoint"/>
                        <mxPoint x="210" y="960" as="targetPoint"/>
                    </mxGeometry>
                </mxCell>
                <mxCell id="53" value="Response&amp;nbsp;" style="text;html=1;align=center;verticalAlign=middle;resizable=0;points=[];autosize=1;strokeColor=none;fillColor=none;fontSize=12;" parent="1" vertex="1">
                    <mxGeometry x="275" y="930" width="70" height="20" as="geometry"/>
                </mxCell>
                <mxCell id="54" value="Exception Filter&lt;br&gt;OnException()&amp;nbsp;&lt;br&gt;" style="whiteSpace=wrap;html=1;rounded=1;" parent="1" vertex="1">
                    <mxGeometry x="660" y="700" width="120" height="60" as="geometry"/>
                </mxCell>
            </root>
        </mxGraphModel>
    </diagram>
    <diagram id="BUy-KY2qesNk9KkUB8f5" name="midlewares">
        <mxGraphModel dx="1361" dy="630" grid="1" gridSize="10" guides="1" tooltips="1" connect="1" arrows="1" fold="1" page="1" pageScale="1" pageWidth="827" pageHeight="1169" math="0" shadow="0">
            <root>
                <mxCell id="tZ6gRIYGBJLyPNA3RhWV-0"/>
                <mxCell id="tZ6gRIYGBJLyPNA3RhWV-1" parent="tZ6gRIYGBJLyPNA3RhWV-0"/>
                <mxCell id="tZ6gRIYGBJLyPNA3RhWV-2" value="" style="shape=flexArrow;endArrow=classic;html=1;fontSize=12;" edge="1" parent="tZ6gRIYGBJLyPNA3RhWV-1">
                    <mxGeometry width="50" height="50" relative="1" as="geometry">
                        <mxPoint x="80" y="130" as="sourcePoint"/>
                        <mxPoint x="180" y="130" as="targetPoint"/>
                    </mxGeometry>
                </mxCell>
                <mxCell id="tZ6gRIYGBJLyPNA3RhWV-3" value="" style="rounded=1;whiteSpace=wrap;html=1;fontSize=12;" vertex="1" parent="tZ6gRIYGBJLyPNA3RhWV-1">
                    <mxGeometry x="180" y="100" width="140" height="300" as="geometry"/>
                </mxCell>
                <mxCell id="tZ6gRIYGBJLyPNA3RhWV-4" value="next()" style="rounded=1;whiteSpace=wrap;html=1;fontSize=12;" vertex="1" parent="tZ6gRIYGBJLyPNA3RhWV-1">
                    <mxGeometry x="360" y="100" width="140" height="300" as="geometry"/>
                </mxCell>
                <mxCell id="tZ6gRIYGBJLyPNA3RhWV-6" value="&lt;br&gt;&lt;br&gt;&lt;br&gt;&lt;br&gt;&lt;br&gt;&lt;br&gt;next()&lt;br&gt;&lt;br&gt;extra logic" style="rounded=1;whiteSpace=wrap;html=1;fontSize=12;" vertex="1" parent="tZ6gRIYGBJLyPNA3RhWV-1">
                    <mxGeometry x="630" y="90" width="140" height="300" as="geometry"/>
                </mxCell>
                <mxCell id="tZ6gRIYGBJLyPNA3RhWV-7" value="Middleware -1" style="text;html=1;strokeColor=none;fillColor=none;align=center;verticalAlign=middle;whiteSpace=wrap;rounded=0;fontSize=12;" vertex="1" parent="tZ6gRIYGBJLyPNA3RhWV-1">
                    <mxGeometry x="210" y="120" width="100" height="30" as="geometry"/>
                </mxCell>
                <mxCell id="tZ6gRIYGBJLyPNA3RhWV-8" value="Middleware -n" style="text;html=1;strokeColor=none;fillColor=none;align=center;verticalAlign=middle;whiteSpace=wrap;rounded=0;fontSize=12;" vertex="1" parent="tZ6gRIYGBJLyPNA3RhWV-1">
                    <mxGeometry x="650" y="120" width="80" height="30" as="geometry"/>
                </mxCell>
                <mxCell id="tZ6gRIYGBJLyPNA3RhWV-9" value="Middleware -2" style="text;html=1;strokeColor=none;fillColor=none;align=center;verticalAlign=middle;whiteSpace=wrap;rounded=0;fontSize=12;" vertex="1" parent="tZ6gRIYGBJLyPNA3RhWV-1">
                    <mxGeometry x="380" y="120" width="80" height="30" as="geometry"/>
                </mxCell>
                <mxCell id="tZ6gRIYGBJLyPNA3RhWV-10" value="execute&lt;br&gt;logic&amp;nbsp;&lt;br&gt;&lt;br&gt;next()" style="text;html=1;strokeColor=none;fillColor=none;align=center;verticalAlign=middle;whiteSpace=wrap;rounded=0;fontSize=12;" vertex="1" parent="tZ6gRIYGBJLyPNA3RhWV-1">
                    <mxGeometry x="200" y="170" width="110" height="30" as="geometry"/>
                </mxCell>
                <mxCell id="tZ6gRIYGBJLyPNA3RhWV-11" value="execture&amp;nbsp;&lt;br&gt;logic&amp;nbsp;&lt;br&gt;after next()&lt;br&gt;execute" style="text;html=1;strokeColor=none;fillColor=none;align=center;verticalAlign=middle;whiteSpace=wrap;rounded=0;fontSize=12;" vertex="1" parent="tZ6gRIYGBJLyPNA3RhWV-1">
                    <mxGeometry x="190" y="340" width="110" height="30" as="geometry"/>
                </mxCell>
                <mxCell id="tZ6gRIYGBJLyPNA3RhWV-12" value="" style="shape=flexArrow;endArrow=classic;html=1;fontSize=12;entryX=0.002;entryY=0.399;entryDx=0;entryDy=0;entryPerimeter=0;" edge="1" parent="tZ6gRIYGBJLyPNA3RhWV-1" target="tZ6gRIYGBJLyPNA3RhWV-4">
                    <mxGeometry width="50" height="50" relative="1" as="geometry">
                        <mxPoint x="290" y="220" as="sourcePoint"/>
                        <mxPoint x="370" y="178" as="targetPoint"/>
                        <Array as="points">
                            <mxPoint x="290" y="220"/>
                        </Array>
                    </mxGeometry>
                </mxCell>
                <mxCell id="tZ6gRIYGBJLyPNA3RhWV-14" value="" style="shape=flexArrow;endArrow=classic;html=1;fontSize=12;exitX=0.714;exitY=0.5;exitDx=0;exitDy=0;exitPerimeter=0;" edge="1" parent="tZ6gRIYGBJLyPNA3RhWV-1" source="tZ6gRIYGBJLyPNA3RhWV-4">
                    <mxGeometry width="50" height="50" relative="1" as="geometry">
                        <mxPoint x="460" y="288" as="sourcePoint"/>
                        <mxPoint x="640" y="250" as="targetPoint"/>
                        <Array as="points"/>
                    </mxGeometry>
                </mxCell>
                <mxCell id="tZ6gRIYGBJLyPNA3RhWV-15" value="" style="shape=flexArrow;endArrow=classic;html=1;fontSize=12;entryX=1.024;entryY=0.834;entryDx=0;entryDy=0;entryPerimeter=0;exitX=0.5;exitY=0.8;exitDx=0;exitDy=0;exitPerimeter=0;" edge="1" parent="tZ6gRIYGBJLyPNA3RhWV-1">
                    <mxGeometry width="50" height="50" relative="1" as="geometry">
                        <mxPoint x="640" y="302" as="sourcePoint"/>
                        <mxPoint x="503.3600000000001" y="322.20000000000005" as="targetPoint"/>
                        <Array as="points">
                            <mxPoint x="640" y="322"/>
                        </Array>
                    </mxGeometry>
                </mxCell>
                <mxCell id="tZ6gRIYGBJLyPNA3RhWV-16" value="&lt;span&gt;// execute before logic&amp;nbsp;&lt;/span&gt;" style="text;html=1;strokeColor=none;fillColor=none;align=center;verticalAlign=middle;whiteSpace=wrap;rounded=0;fontSize=12;" vertex="1" parent="tZ6gRIYGBJLyPNA3RhWV-1">
                    <mxGeometry x="390" y="200" width="90" height="30" as="geometry"/>
                </mxCell>
                <mxCell id="tZ6gRIYGBJLyPNA3RhWV-18" value="Exta Logic" style="text;html=1;strokeColor=none;fillColor=none;align=center;verticalAlign=middle;whiteSpace=wrap;rounded=0;fontSize=12;" vertex="1" parent="tZ6gRIYGBJLyPNA3RhWV-1">
                    <mxGeometry x="410" y="300" width="60" height="30" as="geometry"/>
                </mxCell>
                <mxCell id="tZ6gRIYGBJLyPNA3RhWV-19" value="" style="shape=flexArrow;endArrow=classic;html=1;fontSize=12;entryX=1.024;entryY=0.834;entryDx=0;entryDy=0;entryPerimeter=0;exitX=0.5;exitY=0.8;exitDx=0;exitDy=0;exitPerimeter=0;" edge="1" parent="tZ6gRIYGBJLyPNA3RhWV-1">
                    <mxGeometry width="50" height="50" relative="1" as="geometry">
                        <mxPoint x="426.64" y="350" as="sourcePoint"/>
                        <mxPoint x="290.0000000000001" y="370.20000000000005" as="targetPoint"/>
                        <Array as="points">
                            <mxPoint x="426.64" y="370"/>
                        </Array>
                    </mxGeometry>
                </mxCell>
                <mxCell id="tZ6gRIYGBJLyPNA3RhWV-21" value="" style="shape=flexArrow;endArrow=classic;html=1;fontSize=12;exitX=-0.005;exitY=0.933;exitDx=0;exitDy=0;exitPerimeter=0;" edge="1" parent="tZ6gRIYGBJLyPNA3RhWV-1" source="tZ6gRIYGBJLyPNA3RhWV-3">
                    <mxGeometry width="50" height="50" relative="1" as="geometry">
                        <mxPoint x="70" y="420" as="sourcePoint"/>
                        <mxPoint x="60" y="380" as="targetPoint"/>
                    </mxGeometry>
                </mxCell>
                <mxCell id="tZ6gRIYGBJLyPNA3RhWV-22" value="&lt;font style=&quot;font-size: 24px&quot;&gt;Middleware Pipeline Execution&lt;/font&gt;" style="text;html=1;strokeColor=none;fillColor=none;align=center;verticalAlign=middle;whiteSpace=wrap;rounded=0;fontSize=12;" vertex="1" parent="tZ6gRIYGBJLyPNA3RhWV-1">
                    <mxGeometry x="225" y="10" width="385" height="30" as="geometry"/>
                </mxCell>
                <mxCell id="tZ6gRIYGBJLyPNA3RhWV-23" value="...." style="text;html=1;strokeColor=none;fillColor=none;align=center;verticalAlign=middle;whiteSpace=wrap;rounded=0;fontSize=24;" vertex="1" parent="tZ6gRIYGBJLyPNA3RhWV-1">
                    <mxGeometry x="490" y="110" width="60" height="30" as="geometry"/>
                </mxCell>
                <mxCell id="tZ6gRIYGBJLyPNA3RhWV-24" value="&lt;font style=&quot;font-size: 12px&quot;&gt;custom&lt;br&gt;middlewares&lt;/font&gt;" style="text;html=1;strokeColor=none;fillColor=none;align=center;verticalAlign=middle;whiteSpace=wrap;rounded=0;fontSize=24;" vertex="1" parent="tZ6gRIYGBJLyPNA3RhWV-1">
                    <mxGeometry x="520" y="120" width="90" height="30" as="geometry"/>
                </mxCell>
                <mxCell id="tZ6gRIYGBJLyPNA3RhWV-25" value="Request" style="text;html=1;strokeColor=none;fillColor=none;align=center;verticalAlign=middle;whiteSpace=wrap;rounded=0;fontSize=12;" vertex="1" parent="tZ6gRIYGBJLyPNA3RhWV-1">
                    <mxGeometry x="80" y="90" width="60" height="30" as="geometry"/>
                </mxCell>
                <mxCell id="tZ6gRIYGBJLyPNA3RhWV-26" value="Response" style="text;html=1;strokeColor=none;fillColor=none;align=center;verticalAlign=middle;whiteSpace=wrap;rounded=0;fontSize=12;" vertex="1" parent="tZ6gRIYGBJLyPNA3RhWV-1">
                    <mxGeometry x="90" y="330" width="60" height="30" as="geometry"/>
                </mxCell>
                <mxCell id="tZ6gRIYGBJLyPNA3RhWV-27" value="&lt;span&gt;&amp;nbsp;execute before logic&amp;nbsp;&lt;/span&gt;" style="text;html=1;strokeColor=none;fillColor=none;align=center;verticalAlign=middle;whiteSpace=wrap;rounded=0;fontSize=12;" vertex="1" parent="tZ6gRIYGBJLyPNA3RhWV-1">
                    <mxGeometry x="655" y="230" width="90" height="25" as="geometry"/>
                </mxCell>
            </root>
        </mxGraphModel>
    </diagram>
</mxfile>